<svg version="1.0" xmlns="http://www.w3.org/2000/svg" width="21.333" height="21.333" viewBox="0 0 16 16"><path d="M2.2 1.2C.5 2.9.7 10.5 2.5 12c.8.7 1.5 1.9 1.5 2.6 0 .9 1.2 1.4 3.5 1.4s3.5-.5 3.5-1.4c0-.7.7-1.9 1.5-2.6 1.8-1.5 2-9.1.3-10.8C12.1.5 9.8 0 7.5 0S2.9.5 2.2 1.2zm10.6 4.6c.2 3.1-.2 4.9-1.7 6.9-1.8 2.2-2.1 2.3-2.2.7-.1-1.7-.2-1.7-.7.1l-.5 2-.8-2c-.7-1.9-.8-1.9-.8-.1-.1 1.6-.4 1.5-2.1-.7-2-2.5-2.8-9.6-1.3-11.1.4-.4 2.8-.6 5.3-.4l4.5.3.3 4.3z"/><path d="M3.4 4.1c-1 1.7 1.3 3.6 2.7 2.2C7.3 5.1 6.5 3 5 3c-.5 0-1.2.5-1.6 1.1zM8.4 4.1c-1 1.7 1.3 3.6 2.7 2.2C12.3 5.1 11.5 3 10 3c-.5 0-1.2.5-1.6 1.1zM6.5 9c.4.6 1.1.8 1.6.5C9.5 8.6 9.2 8 7.4 8c-.8 0-1.2.5-.9 1z"/></svg>